<svg xmlns="http://www.w3.org/2000/svg" xmlns:xlink="http://www.w3.org/1999/xlink" style="isolation:isolate" viewBox="0 0 75 75" width="75pt" height="75pt"><defs><clipPath id="_clipPath_CoeT6EAPUkCQT01CJ2jiVWph9pmRgPY3"><rect width="75" height="75"></rect></clipPath></defs><g clip-path="url(#_clipPath_CoeT6EAPUkCQT01CJ2jiVWph9pmRgPY3)"><rect width="75" height="75" style="fill:rgb(0,0,0)" fill-opacity="0"></rect><path d=" M -25 -25 L -25 75 L 75 75 L 75 -25 L -25 -25 Z " fill="none"></path><path d=" M 29.07 38.599 L 19.217 38.599 C 18.963 38.599 18.757 38.805 18.757 39.059 C 18.757 41.68 17.96 42.72 15.938 42.75 C 15.641 42.624 15.315 42.555 14.973 42.555 C 14.382 42.555 13.846 42.772 13.419 43.119 L 13.419 38.412 C 13.419 35.294 15.956 32.758 19.073 32.758 L 35.354 32.758 C 35.118 36.019 32.389 38.599 29.07 38.599 Z  M 30.393 47.041 C 30.393 51.165 27.038 54.521 22.913 54.521 C 18.789 54.521 15.433 51.166 15.433 47.042 C 15.433 46.788 15.228 46.582 14.973 46.582 C 14.117 46.582 13.419 45.886 13.419 45.028 C 13.419 44.172 14.117 43.475 14.973 43.475 C 15.83 43.475 16.527 44.172 16.527 45.028 C 16.527 45.282 16.733 45.488 16.987 45.488 C 17.241 45.488 17.447 45.282 17.447 45.028 C 17.447 44.48 17.261 43.977 16.958 43.566 C 19.16 43.096 19.608 41.177 19.669 39.519 L 29.07 39.519 C 29.523 39.519 29.963 39.472 30.393 39.392 L 30.393 47.041 Z  M 35.83 31.838 L 19.073 31.838 C 15.448 31.838 12.5 34.788 12.5 38.412 L 12.5 45.028 C 12.5 45.69 12.758 46.311 13.226 46.778 C 13.585 47.137 14.035 47.372 14.524 47.461 C 14.744 51.897 18.422 55.44 22.913 55.44 C 27.544 55.44 31.313 51.672 31.313 47.041 L 31.313 39.157 C 34.198 38.211 36.29 35.497 36.29 32.298 C 36.29 32.044 36.084 31.838 35.83 31.838 Z " fill="rgb(41,41,41)"></path><path d=" M 27.848 42.087 C 27.593 42.087 27.388 42.293 27.388 42.547 L 27.388 44.636 C 27.388 44.89 27.593 45.096 27.848 45.096 C 28.102 45.096 28.308 44.89 28.308 44.636 L 28.308 42.547 C 28.308 42.293 28.102 42.087 27.848 42.087 Z " fill="rgb(41,41,41)"></path><path d=" M 23.1 45.096 C 23.355 45.096 23.56 44.89 23.56 44.636 L 23.56 42.547 C 23.56 42.293 23.355 42.087 23.1 42.087 C 22.846 42.087 22.64 42.293 22.64 42.547 L 22.64 44.636 C 22.64 44.89 22.846 45.096 23.1 45.096 Z " fill="rgb(41,41,41)"></path><path d=" M 24.983 50.954 C 24.631 51.181 24.212 51.202 23.886 51.012 C 23.562 50.821 23.376 50.443 23.401 50.025 C 23.417 49.772 23.223 49.554 22.97 49.538 C 22.681 49.519 22.499 49.717 22.483 49.97 C 22.437 50.734 22.796 51.438 23.421 51.805 C 23.712 51.976 24.039 52.061 24.37 52.061 C 24.749 52.061 25.134 51.949 25.48 51.73 C 25.693 51.593 25.756 51.308 25.619 51.094 C 25.481 50.879 25.196 50.818 24.983 50.954 Z " fill="rgb(41,41,41)"></path><path d=" M 61.58 48.88 C 61.125 48.489 60.54 48.244 59.894 48.244 C 59.532 48.244 59.189 48.319 58.874 48.453 C 56.691 48.423 55.832 47.307 55.832 44.489 C 55.832 44.235 55.627 44.029 55.373 44.029 L 42.279 44.029 C 42.517 40.524 45.444 37.745 49.009 37.745 L 55.525 37.745 C 58.864 37.745 61.58 40.461 61.58 43.8 L 61.58 48.88 Z  M 61.086 52.043 C 60.769 52.36 60.347 52.535 59.897 52.535 C 59.897 52.535 59.896 52.535 59.896 52.535 C 59.894 52.535 59.894 52.535 59.894 52.535 C 59.772 52.535 59.656 52.584 59.569 52.67 C 59.483 52.756 59.435 52.873 59.435 52.995 C 59.435 57.407 55.845 60.996 51.434 60.996 C 47.023 60.996 43.433 57.407 43.433 52.995 L 43.433 44.949 L 54.92 44.949 C 54.981 46.723 55.452 48.79 57.834 49.273 C 57.497 49.713 57.288 50.255 57.288 50.851 C 57.288 51.105 57.494 51.311 57.748 51.311 C 58.002 51.311 58.208 51.105 58.208 50.851 C 58.208 49.921 58.964 49.164 59.894 49.164 C 60.824 49.164 61.58 49.921 61.58 50.851 C 61.58 51.302 61.405 51.726 61.086 52.043 Z  M 55.525 36.825 L 49.009 36.825 C 44.782 36.825 41.345 40.264 41.345 44.489 C 41.345 44.743 41.55 44.949 41.804 44.949 L 42.513 44.949 L 42.513 52.995 C 42.513 57.914 46.515 61.916 51.434 61.916 C 56.211 61.916 60.124 58.141 60.345 53.417 C 61.567 53.203 62.5 52.134 62.5 50.851 L 62.5 43.8 C 62.5 39.954 59.371 36.825 55.525 36.825 Z " fill="rgb(41,41,41)"></path><path d=" M 47.288 48.859 L 45.063 48.859 C 44.809 48.859 44.603 49.065 44.603 49.319 C 44.603 49.573 44.809 49.779 45.063 49.779 L 47.288 49.779 C 47.542 49.779 47.748 49.573 47.748 49.319 C 47.748 49.065 47.542 48.859 47.288 48.859 Z " fill="rgb(41,41,41)"></path><path d=" M 50.12 49.779 L 52.346 49.779 C 52.601 49.779 52.806 49.573 52.806 49.319 C 52.806 49.065 52.601 48.859 52.346 48.859 L 50.12 48.859 C 49.866 48.859 49.661 49.065 49.661 49.319 C 49.661 49.573 49.866 49.779 50.12 49.779 Z " fill="rgb(41,41,41)"></path><path d=" M 39.761 29.127 C 39.702 28.935 39.671 28.721 39.671 28.507 L 39.671 27.255 L 44.398 27.255 C 45.851 27.255 47.135 26.277 47.513 24.89 C 47.541 24.797 47.558 24.7 47.577 24.605 C 47.586 24.605 47.594 24.61 47.604 24.61 L 53.929 24.61 C 54.183 24.61 54.389 24.404 54.389 24.15 C 54.389 23.896 54.183 23.69 53.929 23.69 L 47.644 23.69 L 47.644 21.716 L 53.929 21.716 C 54.183 21.716 54.389 21.51 54.389 21.256 C 54.389 21.002 54.183 20.796 53.929 20.796 L 47.644 20.796 L 47.644 18.511 L 58.377 18.511 C 59.66 18.511 60.704 19.559 60.704 20.847 L 60.704 28.507 C 60.704 29.795 59.66 30.843 58.377 30.843 L 56.795 30.843 C 56.646 30.843 56.505 30.917 56.419 31.039 C 56.333 31.162 56.311 31.319 56.363 31.46 L 57.199 33.771 L 50.372 30.88 C 50.315 30.856 50.255 30.843 50.192 30.843 L 41.998 30.843 C 40.958 30.843 40.04 30.143 39.761 29.127 Z  M 36.203 26.336 C 36.141 26.336 36.081 26.349 36.023 26.372 L 29.196 29.263 L 30.032 26.953 C 30.083 26.812 30.063 26.654 29.976 26.532 C 29.89 26.409 29.75 26.336 29.6 26.336 L 28.018 26.336 C 26.735 26.336 25.691 25.288 25.691 24.001 L 25.691 16.34 C 25.691 15.052 26.735 14.003 28.018 14.003 L 44.398 14.003 C 45.681 14.003 46.724 15.052 46.724 16.34 L 46.724 24.001 C 46.724 24.214 46.692 24.427 46.63 24.633 C 46.356 25.636 45.438 26.336 44.398 26.336 L 36.203 26.336 Z  M 50.099 31.763 L 57.811 35.029 C 57.869 35.053 57.931 35.065 57.99 35.065 C 58.106 35.065 58.22 35.022 58.307 34.939 C 58.439 34.813 58.485 34.621 58.423 34.449 L 57.451 31.763 L 58.377 31.763 C 60.167 31.763 61.623 30.303 61.623 28.507 L 61.623 20.847 C 61.623 19.052 60.167 17.592 58.377 17.592 L 47.644 17.592 L 47.644 16.34 C 47.644 14.544 46.187 13.084 44.398 13.084 L 28.018 13.084 C 26.228 13.084 24.772 14.544 24.772 16.34 L 24.772 24.001 C 24.772 25.795 26.228 27.255 28.018 27.255 L 28.944 27.255 L 27.973 29.941 C 27.91 30.113 27.956 30.306 28.088 30.431 C 28.175 30.514 28.289 30.558 28.404 30.558 C 28.465 30.558 28.526 30.545 28.584 30.521 L 36.296 27.255 L 38.752 27.255 L 38.752 28.507 C 38.752 28.815 38.796 29.115 38.878 29.384 C 39.263 30.785 40.545 31.763 41.998 31.763 L 50.099 31.763 Z " fill="rgb(41,41,41)"></path><path d=" M 47.184 27.261 L 53.929 27.261 C 54.183 27.261 54.389 27.056 54.389 26.802 C 54.389 26.547 54.183 26.342 53.929 26.342 L 47.184 26.342 C 46.93 26.342 46.724 26.547 46.724 26.802 C 46.724 27.056 46.93 27.261 47.184 27.261 Z " fill="rgb(41,41,41)"></path><path d=" M 41.804 16.851 L 30.61 16.851 C 30.356 16.851 30.15 17.057 30.15 17.311 C 30.15 17.565 30.356 17.771 30.61 17.771 L 41.804 17.771 C 42.059 17.771 42.264 17.565 42.264 17.311 C 42.264 17.057 42.059 16.851 41.804 16.851 Z " fill="rgb(41,41,41)"></path><path d=" M 41.804 19.773 L 30.61 19.773 C 30.356 19.773 30.15 19.979 30.15 20.233 C 30.15 20.487 30.356 20.693 30.61 20.693 L 41.804 20.693 C 42.059 20.693 42.264 20.487 42.264 20.233 C 42.264 19.979 42.059 19.773 41.804 19.773 Z " fill="rgb(41,41,41)"></path><path d=" M 41.804 22.696 L 30.61 22.696 C 30.356 22.696 30.15 22.902 30.15 23.156 C 30.15 23.41 30.356 23.616 30.61 23.616 L 41.804 23.616 C 42.059 23.616 42.264 23.41 42.264 23.156 C 42.264 22.902 42.059 22.696 41.804 22.696 Z " fill="rgb(41,41,41)"></path><path d=" M 51.971 56.652 C 51.424 56.947 50.965 57.055 50.679 57.059 L 50.325 56.62 L 52.412 56.38 C 52.283 56.472 52.136 56.564 51.971 56.652 Z  M 53.419 55.44 L 49.495 55.892 C 49.347 55.909 49.22 56.005 49.163 56.143 C 49.106 56.281 49.129 56.439 49.223 56.555 L 50.155 57.713 C 50.22 57.794 50.314 57.847 50.416 57.861 C 50.548 57.88 50.694 57.882 50.851 57.868 C 51.301 57.827 51.836 57.654 52.358 57.373 C 53.061 56.995 53.613 56.49 53.836 56.022 C 53.899 55.888 53.885 55.73 53.799 55.608 C 53.712 55.488 53.556 55.439 53.419 55.44 Z " fill="rgb(41,41,41)"></path></g></svg>