<svg xmlns="http://www.w3.org/2000/svg" xmlns:xlink="http://www.w3.org/1999/xlink" style="isolation:isolate" viewBox="0 0 75 75" width="75pt" height="75pt"><defs><clipPath id="_clipPath_JFV2d3SfxMidLOeNhplCkYu93BYwpWDp"><rect width="75" height="75"></rect></clipPath></defs><g clip-path="url(#_clipPath_JFV2d3SfxMidLOeNhplCkYu93BYwpWDp)"><rect width="75" height="75" style="fill:rgb(0,0,0)" fill-opacity="0"></rect><g><line x1="36.415" y1="54.022" x2="36.407" y2="54.022" stroke-width="1" stroke="rgb(0,0,0)" stroke-linejoin="bevel" stroke-linecap="butt" stroke-miterlimit="10"></line><path d=" M 30.343 48.211 L 30.343 48.204 L 30.434 48.068 C 30.938 47.293 31.261 46.397 31.382 45.487 C 31.389 45.427 31.397 45.367 31.404 45.306" fill="none" stroke-width="1" stroke="rgb(0,0,0)" stroke-linejoin="bevel" stroke-linecap="butt" stroke-miterlimit="10"></path><path d=" M 42.713 48.106 C 42.194 47.301 41.87 46.413 41.742 45.479 C 41.735 45.419 41.727 45.359 41.72 45.299" fill="none" stroke-width="1" stroke="rgb(0,0,0)" stroke-linejoin="bevel" stroke-linecap="butt" stroke-miterlimit="10"></path><line x1="48.444" y1="27.257" x2="48.407" y2="30.971" stroke-width="1" stroke="rgb(0,0,0)" stroke-linejoin="bevel" stroke-linecap="butt" stroke-miterlimit="10"></line><line x1="24.674" y1="30.961" x2="24.674" y2="27.267" stroke-width="1" stroke="rgb(0,0,0)" stroke-linejoin="bevel" stroke-linecap="butt" stroke-miterlimit="10"></line><path d=" M 27.839 49.566 L 27.832 49.566 C 26.816 49.709 25.627 49.942 24.385 50.326 C 20.15 51.62 15.364 54.562 15.364 60.852 L 15.364 61.16" fill="none" stroke-width="1" stroke="rgb(0,0,0)" stroke-linejoin="bevel" stroke-linecap="butt" stroke-miterlimit="10"></path><path d=" M 57.763 61.16 L 57.763 60.852 C 57.763 54.562 52.97 51.612 48.735 50.326 C 47.561 49.964 46.424 49.731 45.454 49.588" fill="none" stroke-width="1" stroke="rgb(0,0,0)" stroke-linejoin="bevel" stroke-linecap="butt" stroke-miterlimit="10"></path><line x1="24.385" y1="61.16" x2="24.385" y2="50.326" stroke-width="1" stroke="rgb(0,0,0)" stroke-linejoin="bevel" stroke-linecap="butt" stroke-miterlimit="10"></line><line x1="48.735" y1="61.16" x2="48.735" y2="50.326" stroke-width="1" stroke="rgb(0,0,0)" stroke-linejoin="bevel" stroke-linecap="butt" stroke-miterlimit="10"></line><path d=" M 36.597 53.816 L 41 57.836 L 45.449 49.588 L 42.709 48.109 L 36.597 53.816 Z " fill="none" stroke-width="1" stroke="rgb(0,0,0)" stroke-linejoin="bevel" stroke-linecap="butt" stroke-miterlimit="10"></path><path d=" M 36.642 53.816 L 32.238 57.836 L 27.789 49.588 L 30.53 48.109 L 36.642 53.816 Z " fill="none" stroke-width="1" stroke="rgb(0,0,0)" stroke-linejoin="bevel" stroke-linecap="butt" stroke-miterlimit="10"></path><path d=" M 48.444 27.257 L 48.444 21.329 C 40.653 19.018 32.726 19.044 24.674 21.329 L 24.674 27.257 L 48.444 27.257 Z " fill="none" stroke-width="1" stroke="rgb(0,0,0)" stroke-linejoin="bevel" stroke-linecap="butt" stroke-miterlimit="10"></path><path d=" M 27.401 32.222 C 26.777 31.346 26.081 30.821 24.996 31.01 C 23.884 31.302 23.258 32.804 23.592 34.38 C 23.911 35.852 25.148 36.815 26.22 36.699 C 26.275 37.223 26.387 37.748 26.539 38.245 C 28.041 42.984 31.963 47.067 36.552 47.067 C 41.169 47.067 45.089 42.956 46.578 38.215 C 46.731 37.72 46.828 37.209 46.883 36.699 C 47.955 36.8 49.221 35.838 49.54 34.38 C 49.874 32.804 49.234 31.302 48.122 31.01 C 48.051 30.997 47.969 30.997 47.899 30.982 C 46.939 30.894 46.313 31.405 45.729 32.222" fill="none" stroke-width="1" stroke="rgb(0,0,0)" stroke-linejoin="bevel" stroke-linecap="butt" stroke-miterlimit="10"></path><path d=" M 24.28 22.623 L 14.107 19.25 C 13.995 19.22 13.995 19.062 14.107 19.032 L 36.905 13.006 C 36.92 12.998 36.943 12.998 36.958 13.006 L 59.02 19.032 C 59.133 19.062 59.133 19.22 59.02 19.25 L 48.84 22.721" fill="none" stroke-width="1" stroke="rgb(0,0,0)" stroke-linejoin="bevel" stroke-linecap="butt" stroke-miterlimit="10"></path><line x1="17.28" y1="20.362" x2="17.28" y2="26.012" stroke-width="1" stroke="rgb(0,0,0)" stroke-linejoin="bevel" stroke-linecap="butt" stroke-miterlimit="10"></line><path d=" M 14.911 28.381 L 17.28 26.012 L 19.65 28.381" fill="none" stroke-width="1" stroke="rgb(0,0,0)" stroke-linejoin="bevel" stroke-linecap="butt" stroke-miterlimit="10"></path><path d=" M 32.601 39.855 C 35.12 41.568 37.64 41.568 40.152 39.855" fill="none" stroke-width="1" stroke="rgb(0,0,0)" stroke-linejoin="bevel" stroke-linecap="butt" stroke-miterlimit="10"></path><path d=" M 41.184 33.11 C 41.169 33.325 40.981 33.488 40.764 33.471 C 40.549 33.456 40.386 33.268 40.403 33.053 C 40.419 32.836 40.606 32.675 40.823 32.69 C 41.038 32.706 41.201 32.895 41.184 33.11 Z " fill="none" stroke-width="1" stroke="rgb(0,0,0)" stroke-linejoin="bevel" stroke-linecap="butt" stroke-miterlimit="10"></path><path d=" M 32.94 33.081 C 32.94 33.298 32.763 33.472 32.547 33.472 C 32.33 33.472 32.155 33.298 32.155 33.081 C 32.155 32.864 32.33 32.69 32.547 32.69 C 32.763 32.69 32.94 32.864 32.94 33.081 Z " fill="none" stroke-width="1" stroke="rgb(0,0,0)" stroke-linejoin="bevel" stroke-linecap="butt" stroke-miterlimit="10"></path></g></g></svg>