<svg xmlns="http://www.w3.org/2000/svg" xmlns:xlink="http://www.w3.org/1999/xlink" style="isolation:isolate" viewBox="0 0 75 75" width="75pt" height="75pt"><defs><clipPath id="_clipPath_ilFZGxszh6lUNi13kuY3Q9B7hdPHfDkQ"><rect width="75" height="75"></rect></clipPath></defs><g clip-path="url(#_clipPath_ilFZGxszh6lUNi13kuY3Q9B7hdPHfDkQ)"><g><g><g><path d=" M 61.262 54.811 C 60.832 52.553 59.112 50.725 56.854 50.134 L 49.865 48.36 C 49.865 48.306 49.865 48.306 49.865 48.252 L 49.865 26.748 C 49.865 19.92 44.328 14.383 37.5 14.383 C 30.672 14.383 25.135 19.92 25.135 26.748 L 25.135 48.252 C 25.135 48.306 25.135 48.306 25.135 48.36 L 18.146 50.134 C 15.888 50.671 14.168 52.553 13.738 54.811 L 12.77 59.972 C 12.716 60.133 12.77 60.294 12.878 60.402 C 12.985 60.509 13.146 60.617 13.308 60.617 L 61.692 60.617 C 61.854 60.617 62.015 60.563 62.122 60.402 C 62.23 60.241 62.284 60.133 62.23 59.972 L 61.262 54.811 Z  M 46.155 47.446 C 46.209 47.284 46.209 47.177 46.102 47.016 L 44.489 44.22 C 44.435 44.113 44.274 44.005 44.166 43.951 C 44.059 43.898 43.898 43.951 43.736 44.005 L 42.338 44.811 L 42.338 41.425 C 44.758 39.919 46.424 37.285 46.586 34.221 L 47.177 34.221 C 47.768 34.221 48.36 34.006 48.79 33.683 L 48.79 48.037 L 46.155 47.446 Z  M 37.554 47.607 L 33.737 45.403 L 33.737 42.016 C 34.866 42.553 36.156 42.822 37.5 42.822 C 38.844 42.822 40.134 42.5 41.263 42.016 L 41.263 45.403 L 37.554 47.607 Z  M 30.189 47.069 L 31.264 45.188 L 36.855 48.413 L 35.78 50.295 L 30.189 47.069 Z  M 29.436 29.436 L 29.436 28.952 C 31.533 29.06 38.521 29.167 41.263 26.21 C 41.801 27.232 43.037 28.683 45.564 28.898 L 45.564 29.436 L 45.564 33.737 C 45.564 38.199 41.962 41.801 37.5 41.801 C 33.038 41.801 29.436 38.199 29.436 33.737 L 29.436 29.436 Z  M 46.639 29.974 L 47.177 29.974 C 48.091 29.974 48.79 30.672 48.79 31.586 C 48.79 32.5 48.091 33.199 47.177 33.199 L 46.639 33.199 L 46.639 29.974 Z  M 43.844 45.242 L 44.919 47.123 L 39.328 50.349 L 38.253 48.467 L 43.844 45.242 Z  M 37.5 15.458 C 43.736 15.458 48.79 20.512 48.79 26.748 L 48.79 29.436 C 48.36 29.113 47.768 28.898 47.177 28.898 L 46.639 28.898 L 46.639 28.361 C 46.639 28.038 46.424 27.823 46.102 27.823 C 42.661 27.823 41.962 25.135 41.908 25.028 C 41.855 24.813 41.693 24.651 41.478 24.597 C 41.263 24.544 41.048 24.651 40.941 24.866 C 38.79 28.576 29.06 27.823 28.952 27.823 C 28.791 27.823 28.63 27.877 28.522 27.984 C 28.414 28.092 28.361 28.199 28.361 28.361 L 28.361 28.898 L 27.823 28.898 C 27.232 28.898 26.64 29.113 26.21 29.436 L 26.21 26.748 C 26.21 20.512 31.264 15.458 37.5 15.458 Z  M 28.361 33.199 L 27.823 33.199 C 26.909 33.199 26.21 32.5 26.21 31.586 C 26.21 30.672 26.909 29.974 27.823 29.974 L 28.361 29.974 L 28.361 33.199 Z  M 26.21 33.737 C 26.64 34.059 27.232 34.274 27.823 34.274 L 28.414 34.274 C 28.576 37.285 30.242 39.973 32.662 41.478 L 32.662 44.811 L 31.318 44.059 C 31.21 43.951 31.049 43.951 30.887 43.951 C 30.726 44.005 30.619 44.059 30.565 44.22 L 28.952 47.016 C 28.898 47.123 28.898 47.284 28.898 47.446 L 26.21 48.145 L 26.21 33.737 Z  M 14.813 54.972 C 15.189 53.091 16.587 51.585 18.415 51.155 L 30.027 48.252 L 35.672 51.531 C 35.78 51.585 35.833 51.585 35.941 51.585 C 35.995 51.585 36.048 51.585 36.102 51.585 C 36.264 51.531 36.371 51.478 36.425 51.316 L 36.962 50.403 L 36.962 59.542 L 13.953 59.542 L 14.813 54.972 Z  M 38.038 59.542 L 38.038 50.241 L 38.629 51.316 C 38.683 51.424 38.844 51.531 38.952 51.585 C 39.005 51.585 39.059 51.585 39.113 51.585 C 39.22 51.585 39.274 51.585 39.382 51.531 L 45.026 48.252 L 56.585 51.155 C 58.413 51.639 59.864 53.144 60.187 54.972 L 61.047 59.542 L 38.038 59.542 Z " fill="rgb(0,0,0)"></path><path d=" M 32.662 32.124 C 32.662 31.533 33.145 31.049 33.737 31.049 C 34.328 31.049 34.812 31.533 34.812 32.124 C 34.812 32.447 35.027 32.662 35.35 32.662 C 35.672 32.662 35.887 32.447 35.887 32.124 C 35.887 30.941 34.919 29.974 33.737 29.974 C 32.554 29.974 31.586 30.941 31.586 32.124 C 31.586 32.447 31.801 32.662 32.124 32.662 C 32.447 32.662 32.662 32.447 32.662 32.124 Z " fill="rgb(0,0,0)"></path><path d=" M 35.081 37.554 C 34.812 37.715 34.758 38.038 34.919 38.306 C 35.403 39.113 36.371 39.65 37.5 39.65 C 38.629 39.65 39.597 39.113 40.134 38.306 C 40.296 38.038 40.188 37.715 39.973 37.554 C 39.704 37.392 39.382 37.5 39.22 37.715 C 38.898 38.253 38.253 38.575 37.5 38.575 C 36.747 38.575 36.102 38.253 35.833 37.769 C 35.672 37.5 35.35 37.446 35.081 37.554 Z " fill="rgb(0,0,0)"></path><path d=" M 39.65 32.662 C 39.973 32.662 40.188 32.447 40.188 32.124 C 40.188 31.533 40.672 31.049 41.263 31.049 C 41.855 31.049 42.338 31.533 42.338 32.124 C 42.338 32.447 42.553 32.662 42.876 32.662 C 43.199 32.662 43.414 32.447 43.414 32.124 C 43.414 30.941 42.446 29.974 41.263 29.974 C 40.081 29.974 39.113 30.941 39.113 32.124 C 39.113 32.447 39.328 32.662 39.65 32.662 Z " fill="rgb(0,0,0)"></path></g></g></g></g></svg>