<svg xmlns="http://www.w3.org/2000/svg" xmlns:xlink="http://www.w3.org/1999/xlink" style="isolation:isolate" viewBox="0 0 75 75" width="75pt" height="75pt"><defs><clipPath id="_clipPath_jmmuGv0j7ZgwQK74VOOVavjAqjBzvGWs"><rect width="75" height="75"></rect></clipPath></defs><g clip-path="url(#_clipPath_jmmuGv0j7ZgwQK74VOOVavjAqjBzvGWs)"><g><path d=" M 50.713 43.002 C 52.174 43.002 53.362 41.814 53.362 40.353 C 53.362 39.907 53.001 39.545 52.555 39.545 C 52.109 39.545 51.747 39.907 51.747 40.353 C 51.747 40.923 51.283 41.387 50.713 41.387 C 50.142 41.387 49.678 40.923 49.678 40.353 C 49.678 39.907 49.317 39.545 48.871 39.545 C 48.425 39.545 48.063 39.907 48.063 40.353 C 48.063 41.814 49.252 43.002 50.713 43.002 Z " fill="rgb(0,0,0)"></path><path d=" M 54.947 38.473 C 55.393 38.473 55.754 38.111 55.754 37.665 L 55.754 36.821 C 56.153 36.772 56.461 36.432 56.461 36.02 C 56.461 35.574 56.1 35.213 55.654 35.213 L 54.947 35.213 C 54.501 35.213 54.139 35.574 54.139 36.02 L 54.139 37.665 C 54.139 38.111 54.501 38.473 54.947 38.473 Z " fill="rgb(0,0,0)"></path><path d=" M 45.671 36.822 L 45.671 37.665 C 45.671 38.111 46.033 38.473 46.479 38.473 C 46.925 38.473 47.286 38.111 47.286 37.665 L 47.286 36.02 C 47.286 35.574 46.925 35.213 46.479 35.213 L 45.772 35.213 C 45.326 35.213 44.964 35.574 44.964 36.02 C 44.964 36.432 45.273 36.772 45.671 36.822 L 45.671 36.822 Z " fill="rgb(0,0,0)"></path><path d=" M 62.781 37.81 C 63.011 37.325 63.14 36.784 63.14 36.213 C 63.14 35.263 62.784 34.394 62.199 33.732 C 62.292 33.601 62.347 33.441 62.347 33.267 C 62.347 30.882 62.466 29.468 61.748 27.417 C 61.601 26.996 61.141 26.773 60.72 26.921 C 60.299 27.068 60.077 27.529 60.224 27.95 C 60.81 29.626 60.732 30.789 60.732 32.46 C 59.702 32.46 56.927 32.46 55.757 32.46 C 53.421 32.46 51.52 30.559 51.52 28.223 C 51.52 27.777 51.159 27.415 50.713 27.415 C 50.267 27.415 49.905 27.777 49.905 28.223 C 49.905 30.559 48.004 32.46 45.668 32.46 L 42.159 32.46 L 40.693 32.46 L 40.693 30.956 C 40.693 25.937 44.776 21.855 49.794 21.855 C 49.855 21.855 49.905 21.904 49.905 21.965 C 49.905 22.411 50.267 22.773 50.713 22.773 C 51.159 22.773 51.52 22.411 51.52 21.965 C 51.52 21.904 51.57 21.855 51.631 21.855 C 54.262 21.855 56.763 22.993 58.493 24.978 C 58.786 25.314 59.296 25.348 59.633 25.056 C 59.969 24.762 60.004 24.252 59.71 23.916 C 57.673 21.58 54.728 20.24 51.631 20.24 C 51.294 20.24 50.979 20.337 50.713 20.505 C 50.447 20.337 50.132 20.24 49.795 20.24 C 43.886 20.24 39.079 25.047 39.079 30.956 L 39.079 33.268 C 39.079 33.441 39.134 33.601 39.226 33.732 C 38.955 34.039 38.733 34.39 38.573 34.774 C 38.476 33.583 37.876 32.537 36.979 31.853 L 36.979 28.777 C 36.979 22.72 32.051 17.792 25.994 17.792 C 24.49 17.792 25.093 17.766 23.013 17.929 C 20.144 18.153 17.576 19.688 16.021 22.077 L 13.59 21.3 C 13.086 21.138 12.563 21.499 12.537 22.03 C 12.526 22.274 12.282 27.681 13.268 31.448 C 11.925 32.122 11 33.512 11 35.114 C 11 37.194 12.556 38.916 14.566 39.179 C 15.071 41.349 16.266 43.318 17.975 44.779 C 18.423 45.162 18.901 45.503 19.402 45.802 L 17.703 45.802 C 14.911 45.802 12.639 48.074 12.639 50.865 L 12.639 57.942 C 12.639 58.388 13.001 58.749 13.447 58.749 L 14.788 58.749 C 15.234 58.749 15.596 58.388 15.596 57.942 C 15.596 57.496 15.234 57.134 14.788 57.134 L 14.254 57.134 L 14.254 50.865 C 14.254 48.964 15.801 47.417 17.703 47.417 L 20.052 47.417 C 20.453 49.798 22.606 51.588 25.122 51.426 C 27.399 51.279 29.203 49.566 29.566 47.417 L 31.915 47.417 C 33.817 47.417 35.364 48.964 35.364 50.865 L 35.364 57.134 L 18.557 57.134 C 18.111 57.134 17.749 57.496 17.749 57.942 C 17.749 58.388 18.111 58.749 18.557 58.749 L 36.171 58.749 C 36.617 58.749 36.979 58.388 36.979 57.942 L 36.979 50.865 C 36.979 50.193 36.846 49.551 36.607 48.964 L 37.904 48.964 C 38.717 48.964 39.491 48.802 40.199 48.509 C 39.701 49.28 39.411 50.196 39.411 51.18 L 39.411 57.942 C 39.411 58.388 39.772 58.749 40.218 58.749 L 61.262 58.749 C 61.708 58.749 62.069 58.388 62.069 57.942 L 62.069 51.18 C 62.069 50.209 61.786 49.302 61.299 48.538 C 61.987 48.812 62.737 48.964 63.522 48.964 L 65.318 48.964 C 65.763 48.964 66.125 48.602 66.125 48.156 L 66.125 43.211 C 66.125 40.91 64.792 38.819 62.781 37.81 L 62.781 37.81 Z  M 45.668 34.075 C 47.814 34.075 49.694 32.914 50.713 31.187 C 51.731 32.914 53.611 34.075 55.758 34.075 L 59.387 34.075 C 60.566 34.075 61.525 35.034 61.525 36.213 C 61.525 36.789 61.294 37.312 60.922 37.697 C 60.497 38.136 59.907 38.373 59.301 38.348 C 58.893 38.329 58.538 38.62 58.47 39.022 C 57.856 42.695 54.679 45.58 50.713 45.58 C 47.911 45.58 45.293 44.099 43.885 41.635 C 43.872 41.602 43.857 41.57 43.839 41.538 C 43.51 40.948 43.261 40.325 43.094 39.679 C 43.091 39.666 43.088 39.653 43.085 39.64 C 43.039 39.458 42.996 39.264 42.955 39.022 C 42.888 38.621 42.532 38.33 42.125 38.348 C 40.916 38.397 39.901 37.422 39.901 36.213 C 39.901 35.034 40.86 34.075 42.039 34.075 C 42.068 34.075 42.098 34.076 42.127 34.077 C 42.161 34.079 42.195 34.078 42.229 34.075 L 45.668 34.075 L 45.668 34.075 Z  M 50.726 50.592 C 49.19 50.592 47.94 49.342 47.94 47.806 L 47.94 47.054 L 47.94 46.783 C 48.856 47.064 49.813 47.196 50.713 47.196 C 51.642 47.196 52.609 47.055 53.512 46.774 L 53.512 47.806 C 53.512 49.294 52.339 50.514 50.869 50.589 C 50.822 50.591 50.774 50.592 50.726 50.592 L 50.726 50.592 Z  M 44.343 46.246 C 44.343 46.246 44.343 46.246 44.342 46.246 C 43.789 46.247 43.257 46.34 42.76 46.509 C 43.259 45.834 43.62 45.052 43.804 44.205 C 44.041 44.457 44.291 44.698 44.556 44.925 C 45.102 45.391 45.696 45.79 46.325 46.118 L 46.325 46.246 L 44.343 46.246 Z  M 55.127 46.105 C 56.042 45.624 56.878 44.997 57.622 44.205 C 57.803 45.042 58.158 45.816 58.648 46.485 C 57.727 46.187 57.245 46.246 55.128 46.246 L 55.128 46.105 L 55.127 46.105 Z  M 14.124 23.166 L 16.138 23.81 C 16.505 23.927 16.904 23.769 17.091 23.431 C 18.328 21.193 20.589 19.738 23.139 19.539 C 25.169 19.381 24.553 19.407 25.994 19.407 C 31.16 19.407 35.364 23.61 35.364 28.777 L 35.364 31.109 C 34.658 30.957 34.881 31.018 23.807 31.018 C 23.002 31.018 22.23 30.839 21.535 30.516 C 20.007 29.805 18.847 28.396 18.508 26.661 C 18.378 25.997 17.562 25.798 17.126 26.264 C 15.961 27.509 15.146 28.984 14.704 30.515 C 14.149 28.004 14.104 24.799 14.124 23.166 L 14.124 23.166 Z  M 16.03 38.27 C 15.964 37.879 15.627 37.595 15.234 37.595 C 15.223 37.595 15.212 37.595 15.201 37.596 C 15.167 37.597 15.134 37.599 15.099 37.599 C 13.73 37.599 12.615 36.484 12.615 35.114 C 12.615 33.767 13.689 32.679 15.009 32.632 C 15.012 32.632 15.016 32.632 15.019 32.632 C 15.079 32.63 15.139 32.63 15.199 32.632 C 15.2 32.632 15.202 32.632 15.203 32.632 C 15.205 32.633 15.208 32.632 15.21 32.632 C 15.613 32.645 15.963 32.357 16.03 31.959 C 16.212 30.869 16.595 29.832 17.156 28.892 C 17.236 28.758 17.32 28.626 17.408 28.495 C 18.519 30.964 21.005 32.633 23.807 32.633 L 34.605 32.633 L 34.606 32.633 C 34.998 32.651 35.406 32.769 35.758 32.979 C 35.764 32.983 35.771 32.985 35.777 32.989 C 36.496 33.424 36.973 34.212 36.973 35.114 C 36.973 36.484 35.859 37.598 34.489 37.598 C 34.455 37.598 34.421 37.597 34.387 37.596 C 33.981 37.581 33.625 37.868 33.558 38.269 C 32.826 42.645 29.061 45.679 24.794 45.679 C 20.494 45.679 16.756 42.614 16.03 38.27 L 16.03 38.27 Z  M 24.647 49.818 C 23.067 49.739 21.779 48.51 21.617 46.943 C 21.616 46.931 21.615 46.919 21.614 46.907 C 21.611 46.872 21.608 46.837 21.606 46.802 C 22.669 47.141 23.778 47.294 24.794 47.294 C 25.829 47.294 26.947 47.136 28.013 46.792 C 27.916 48.55 26.408 49.906 24.647 49.818 L 24.647 49.818 Z  M 31.915 45.802 L 30.187 45.802 C 30.687 45.503 31.165 45.162 31.614 44.779 C 33.322 43.318 34.517 41.349 35.023 39.179 C 36.524 38.983 37.772 37.972 38.307 36.606 C 38.352 37.032 38.468 37.438 38.644 37.81 C 36.634 38.819 35.3 40.91 35.3 43.211 L 35.3 47.104 C 34.403 46.295 33.216 45.802 31.915 45.802 L 31.915 45.802 Z  M 36.916 47.349 L 36.916 43.211 C 36.916 41.414 38.026 39.79 39.663 39.118 C 40.2 39.556 40.846 39.831 41.492 39.926 C 41.678 40.705 41.972 41.466 42.326 42.136 L 42.326 42.927 C 42.326 45.365 40.342 47.349 37.904 47.349 L 36.916 47.349 L 36.916 47.349 Z  M 60.454 57.134 L 41.026 57.134 L 41.026 51.18 C 41.026 49.35 42.514 47.861 44.344 47.861 L 46.325 47.861 C 46.355 50.246 48.304 52.207 50.726 52.207 C 53.12 52.207 55.097 50.276 55.127 47.861 L 57.135 47.861 C 58.965 47.861 60.454 49.35 60.454 51.18 L 60.454 57.134 L 60.454 57.134 Z  M 64.51 47.349 L 63.521 47.349 C 61.083 47.349 59.099 45.365 59.099 42.927 L 59.099 42.137 C 59.459 41.456 59.75 40.695 59.934 39.926 C 60.541 39.837 61.152 39.59 61.684 39.177 C 61.71 39.157 61.737 39.139 61.762 39.118 C 63.4 39.79 64.51 41.414 64.51 43.211 L 64.51 47.349 Z " fill="rgb(0,0,0)"></path><path d=" M 24.794 42.621 C 26.375 42.621 27.661 41.336 27.661 39.755 C 27.661 39.309 27.299 38.947 26.853 38.947 C 26.407 38.947 26.046 39.309 26.046 39.755 C 26.046 40.445 25.484 41.006 24.794 41.006 C 24.104 41.006 23.543 40.445 23.543 39.755 C 23.543 39.309 23.181 38.947 22.735 38.947 C 22.289 38.947 21.928 39.309 21.928 39.755 C 21.928 41.335 23.214 42.621 24.794 42.621 Z " fill="rgb(0,0,0)"></path><path d=" M 20.062 34.132 C 19.616 34.132 19.255 34.493 19.255 34.939 L 19.255 36.725 C 19.255 37.171 19.616 37.532 20.062 37.532 C 20.508 37.532 20.87 37.171 20.87 36.725 L 20.87 34.939 C 20.87 34.493 20.508 34.132 20.062 34.132 Z " fill="rgb(0,0,0)"></path><path d=" M 29.526 37.532 C 29.972 37.532 30.334 37.171 30.334 36.725 L 30.334 34.939 C 30.334 34.493 29.972 34.132 29.526 34.132 C 29.08 34.132 28.719 34.493 28.719 34.939 L 28.719 36.725 C 28.719 37.171 29.08 37.532 29.526 37.532 Z " fill="rgb(4,4,4)"></path></g></g></svg>