<svg xmlns="http://www.w3.org/2000/svg" xmlns:xlink="http://www.w3.org/1999/xlink" style="isolation:isolate" viewBox="0 0 75 75" width="75pt" height="75pt"><defs><clipPath id="_clipPath_qWaK6kyS5hcbI5L1h7PiwZbTkZhpowu2"><rect width="75" height="75"></rect></clipPath></defs><g clip-path="url(#_clipPath_qWaK6kyS5hcbI5L1h7PiwZbTkZhpowu2)"><rect width="75" height="75" style="fill:rgb(0,0,0)" fill-opacity="0"></rect><path d=" M -12.5 -12.5 L -12.5 87.5 L 87.5 87.5 L 87.5 -12.5 L -12.5 -12.5 Z " fill="none"></path><path d=" M 13.759 16.471 C 13.759 15.338 14.584 14.414 15.607 14.414 L 30.195 14.414 C 31.219 14.414 32.044 15.338 32.044 16.471 L 32.044 20.704 C 32.044 20.823 32.083 20.933 32.163 21.012 L 34.518 23.666 L 15.607 23.666 C 14.584 23.666 13.759 22.741 13.759 21.599 L 13.759 16.471 Z  M 15.607 24.599 L 35.571 24.599 C 35.75 24.599 35.919 24.49 35.998 24.321 C 36.078 24.152 36.038 23.954 35.919 23.815 L 32.987 20.525 L 32.987 16.471 C 32.987 14.811 31.735 13.47 30.195 13.47 L 15.607 13.47 C 14.067 13.47 12.815 14.811 12.815 16.471 L 12.815 21.599 C 12.815 23.258 14.067 24.599 15.607 24.599 Z " fill="rgb(41,41,41)"></path><path d=" M 15.664 17.446 L 25.658 17.446 C 25.918 17.446 26.128 17.236 26.128 16.976 C 26.128 16.716 25.918 16.506 25.658 16.506 L 15.664 16.506 C 15.404 16.506 15.194 16.716 15.194 16.976 C 15.194 17.236 15.404 17.446 15.664 17.446 Z " fill="rgb(41,41,41)"></path><path d=" M 15.664 21.173 L 18.742 21.173 C 19.002 21.173 19.212 20.963 19.212 20.703 C 19.212 20.443 19.002 20.233 18.742 20.233 L 15.664 20.233 C 15.404 20.233 15.194 20.443 15.194 20.703 C 15.194 20.963 15.404 21.173 15.664 21.173 Z " fill="rgb(41,41,41)"></path><path d=" M 20.813 20.703 C 20.813 20.963 21.024 21.173 21.284 21.173 L 30.14 21.173 C 30.4 21.173 30.61 20.963 30.61 20.703 C 30.61 20.443 30.4 20.233 30.14 20.233 L 21.284 20.233 C 21.024 20.233 20.813 20.443 20.813 20.703 Z " fill="rgb(41,41,41)"></path><path d=" M 61.556 54.391 C 61.556 55.523 60.731 56.447 59.708 56.447 L 40.738 56.447 L 43.104 53.804 C 43.173 53.715 43.223 53.606 43.223 53.496 L 43.223 49.263 C 43.223 48.12 44.047 47.196 45.07 47.196 L 59.708 47.196 C 60.731 47.196 61.556 48.12 61.556 49.263 L 61.556 54.391 Z  M 59.708 46.262 L 45.07 46.262 C 43.53 46.262 42.278 47.604 42.278 49.263 L 42.278 53.317 L 39.337 56.606 C 39.208 56.745 39.178 56.944 39.258 57.113 C 39.337 57.282 39.496 57.392 39.685 57.392 L 59.708 57.392 C 61.248 57.392 62.5 56.05 62.5 54.391 L 62.5 49.263 C 62.5 47.604 61.248 46.262 59.708 46.262 Z " fill="rgb(41,41,41)"></path><path d=" M 59.648 49.295 L 49.625 49.295 C 49.365 49.295 49.154 49.505 49.154 49.765 C 49.154 50.024 49.365 50.234 49.625 50.234 L 59.648 50.234 C 59.908 50.234 60.118 50.024 60.118 49.765 C 60.118 49.505 59.908 49.295 59.648 49.295 Z " fill="rgb(41,41,41)"></path><path d=" M 59.648 53.022 L 56.561 53.022 C 56.301 53.022 56.091 53.232 56.091 53.492 C 56.091 53.752 56.301 53.962 56.561 53.962 L 59.648 53.962 C 59.908 53.962 60.118 53.752 60.118 53.492 C 60.118 53.232 59.908 53.022 59.648 53.022 Z " fill="rgb(41,41,41)"></path><path d=" M 54.012 53.022 L 45.13 53.022 C 44.87 53.022 44.66 53.232 44.66 53.492 C 44.66 53.752 44.87 53.962 45.13 53.962 L 54.012 53.962 C 54.272 53.962 54.482 53.752 54.482 53.492 C 54.482 53.232 54.272 53.022 54.012 53.022 Z " fill="rgb(41,41,41)"></path><path d=" M 27.051 35.514 C 26.839 35.663 26.788 35.957 26.938 36.169 L 27.969 37.633 C 28.07 37.777 28.236 37.847 28.399 37.831 C 28.477 37.823 28.555 37.796 28.624 37.747 C 28.836 37.598 28.888 37.304 28.738 37.092 L 27.706 35.627 C 27.557 35.414 27.263 35.363 27.051 35.514 Z " fill="rgb(41,41,41)"></path><path d=" M 25.409 39.438 L 24.377 37.973 C 24.225 37.76 23.932 37.71 23.722 37.859 C 23.509 38.009 23.458 38.302 23.608 38.515 L 24.64 39.98 C 24.742 40.122 24.907 40.192 25.07 40.177 C 25.148 40.169 25.226 40.142 25.295 40.093 C 25.508 39.943 25.559 39.65 25.409 39.438 Z " fill="rgb(41,41,41)"></path><path d=" M 26.03 44.194 C 25.792 44.088 25.515 44.191 25.408 44.43 C 25.301 44.666 25.406 44.944 25.643 45.051 C 26.062 45.24 26.667 45.306 27.335 45.241 C 27.548 45.221 27.77 45.187 27.993 45.139 C 28.912 44.943 29.701 44.555 30.104 44.101 C 30.276 43.906 30.258 43.609 30.065 43.437 C 29.87 43.265 29.572 43.282 29.4 43.477 C 29.198 43.705 28.657 44.036 27.797 44.219 C 26.94 44.402 26.308 44.32 26.03 44.194 Z " fill="rgb(41,41,41)"></path><path d=" M 36.183 50.177 C 34.845 52.662 32.001 53.915 29.258 53.222 L 23.938 51.888 C 21.196 51.194 19.283 48.743 19.27 45.92 C 19.271 45.829 19.287 45.788 19.31 45.716 C 19.396 45.368 19.702 45.129 20.048 45.096 C 20.148 45.086 20.248 45.097 20.351 45.126 L 22.827 45.746 C 23.051 45.794 23.234 45.937 23.353 46.124 C 23.471 46.322 23.504 46.559 23.446 46.784 L 23.223 47.685 L 23.197 47.826 C 23.151 48.07 23.303 48.306 23.54 48.372 L 31.274 50.312 C 31.52 50.378 31.774 50.224 31.84 49.978 L 32.101 48.954 C 32.216 48.493 32.689 48.218 33.14 48.334 L 35.615 48.954 C 35.881 49.019 36.099 49.207 36.203 49.456 C 36.316 49.695 36.3 49.946 36.183 50.177 Z  M 24.213 55.765 C 24.333 56.492 24.071 57.296 23.435 58.156 C 22.197 58.256 21.234 57.999 20.555 57.376 C 19.986 56.861 19.7 56.171 19.555 55.606 C 20.239 56.068 21.113 56.434 22.256 56.593 C 22.297 56.599 22.326 56.596 22.366 56.592 C 22.524 56.577 22.666 56.493 22.743 56.356 C 23.122 55.731 23.402 55.124 23.619 54.574 C 23.842 54.822 24.131 55.224 24.213 55.765 Z  M 24.938 57.482 C 25.071 57.619 25.21 57.825 25.268 58.109 C 25.399 58.745 25.06 59.576 24.292 60.519 C 22.925 60.621 21.89 60.352 21.21 59.719 C 20.836 59.356 20.626 58.936 20.509 58.559 C 21.345 59.047 22.383 59.256 23.63 59.136 L 23.749 59.124 C 23.886 59.101 24.01 59.039 24.089 58.932 C 24.472 58.445 24.744 57.96 24.938 57.482 Z  M 18.848 53.131 C 17.98 51.832 17.075 50.557 16.079 49.355 C 15.672 48.864 15.318 48.415 15.163 48.163 C 12.126 43.175 13.189 36.603 17.708 32.533 L 17.772 32.467 C 20.454 30.052 24.275 29.513 27.288 31.149 C 27.551 31.294 27.774 31.432 27.959 31.584 C 26.912 32.423 24.812 33.834 23.721 33.291 C 23.553 33.207 23.346 33.237 23.208 33.35 C 23.07 33.473 23.009 33.669 23.056 33.844 C 23.551 35.563 21.126 39.91 19.48 40.857 C 19.366 40.919 19.276 41.027 19.25 41.159 C 19.222 41.292 19.246 41.43 19.325 41.531 L 19.511 41.803 C 18.872 41.805 18.26 42.084 17.831 42.594 C 17.328 43.182 17.18 44.024 17.45 44.758 C 17.634 45.219 17.95 45.588 18.344 45.849 C 18.347 45.879 18.329 45.9 18.332 45.93 C 18.341 48.815 20.093 51.351 22.675 52.449 L 22.685 52.448 C 22.685 52.448 23.264 52.636 23.002 53.256 C 23.002 53.256 22.431 54.889 22.066 55.553 C 20.654 55.398 19.55 54.182 18.848 53.131 Z  M 31.258 37.844 C 33.271 40.694 32.595 44.653 29.735 46.677 C 29.286 46.989 28.82 47.234 28.31 47.433 C 27.867 47.596 27.419 47.709 26.984 47.761 C 26.67 47.811 26.353 47.831 26.022 47.823 C 25.413 47.822 24.813 47.71 24.227 47.527 L 24.357 47.016 C 24.481 46.545 24.405 46.063 24.155 45.648 C 23.905 45.232 23.518 44.94 23.057 44.825 L 20.582 44.205 C 19.835 44.018 19.076 44.331 18.672 44.899 C 18.519 44.764 18.404 44.606 18.325 44.413 C 18.177 44.019 18.27 43.53 18.548 43.204 C 18.807 42.89 19.171 42.725 19.572 42.745 C 19.962 42.758 20.321 42.953 20.542 43.281 C 20.692 43.486 20.986 43.537 21.192 43.398 C 21.408 43.247 21.459 42.953 21.309 42.737 L 20.369 41.381 C 22.021 40.083 24.083 36.62 24.063 34.346 C 25.31 34.445 26.777 33.614 27.786 32.898 L 31.258 37.844 Z  M 35.847 48.043 L 33.371 47.424 C 32.409 47.177 31.427 47.761 31.19 48.723 L 31.045 49.285 L 27.985 48.513 C 28.2 48.462 28.423 48.391 28.635 48.31 C 29.233 48.093 29.764 47.802 30.278 47.442 C 33.558 45.119 34.337 40.571 32.025 37.301 L 28.54 32.326 C 28.762 32.145 28.917 32.001 28.982 31.944 C 29.175 31.776 29.187 31.485 29.019 31.292 C 28.715 30.941 28.295 30.623 27.727 30.318 C 24.377 28.505 20.121 29.086 17.126 31.781 L 17.054 31.857 C 12.947 35.555 11.511 41.216 13.184 46.132 C 13.613 47.394 14.309 48.557 15.109 49.624 C 17.194 52.403 18.099 54.148 18.426 54.557 C 18.427 54.566 18.427 54.566 18.428 54.576 C 18.425 54.647 18.417 56.225 19.35 57.512 C 19.351 57.522 19.351 57.522 19.351 57.522 C 19.348 57.592 19.288 59.245 20.52 60.424 C 21.443 61.304 22.816 61.66 24.597 61.488 C 24.723 61.476 24.85 61.409 24.932 61.313 C 26.004 60.042 26.451 58.893 26.246 57.894 C 26.065 57.064 25.492 56.609 25.216 56.436 C 25.249 56.154 25.242 55.875 25.196 55.61 C 25.016 54.459 24.249 53.765 23.968 53.542 C 24.027 53.327 24.07 53.144 24.105 52.99 L 24.249 52.936 L 29.027 54.132 C 29.835 54.334 30.649 54.394 31.451 54.317 C 33.746 54.096 35.862 52.754 37.003 50.617 L 37.014 50.616 C 37.267 50.143 37.293 49.581 37.065 49.074 C 36.835 48.557 36.389 48.181 35.847 48.043 Z " fill="rgb(41,41,41)"></path><path d=" M 47.108 26.724 C 47.016 26.481 46.743 26.36 46.502 26.453 C 46.26 26.546 46.138 26.818 46.231 27.06 L 46.858 28.696 C 46.93 28.883 47.107 28.998 47.297 28.998 C 47.353 28.998 47.41 28.988 47.465 28.967 C 47.707 28.874 47.828 28.602 47.735 28.359 L 47.108 26.724 Z " fill="rgb(41,41,41)"></path><path d=" M 51.182 27.542 C 51.425 27.449 51.546 27.177 51.453 26.935 L 50.826 25.299 C 50.733 25.057 50.461 24.935 50.219 25.028 C 49.977 25.122 49.856 25.394 49.948 25.636 L 50.575 27.272 C 50.647 27.458 50.825 27.573 51.014 27.573 C 51.07 27.573 51.127 27.563 51.182 27.542 Z " fill="rgb(41,41,41)"></path><path d=" M 52.553 30.827 C 52.316 30.934 52.212 31.212 52.319 31.449 C 52.452 31.74 52.424 32.058 52.247 32.279 C 52.07 32.5 51.771 32.599 51.453 32.534 C 51.202 32.483 50.949 32.645 50.898 32.899 C 50.845 33.154 51.01 33.403 51.264 33.455 C 51.391 33.481 51.518 33.494 51.643 33.494 C 52.168 33.494 52.659 33.269 52.981 32.866 C 53.38 32.367 53.454 31.675 53.176 31.06 C 53.069 30.824 52.791 30.72 52.553 30.827 Z " fill="rgb(41,41,41)"></path><path d=" M 41.305 20.456 C 41.434 20.396 41.533 20.277 41.563 20.128 C 41.593 19.989 41.553 19.85 41.464 19.731 C 41.355 19.601 41.274 19.452 41.195 19.273 C 40.798 18.21 41.324 17.027 42.378 16.62 C 42.626 16.531 42.875 16.481 43.123 16.481 C 43.511 16.481 43.888 16.59 44.216 16.809 C 44.345 16.898 44.504 16.918 44.644 16.858 C 44.782 16.809 44.892 16.689 44.932 16.541 C 45.101 15.915 45.567 15.398 46.193 15.159 C 47.148 14.792 48.261 15.219 48.718 16.123 C 48.807 16.302 49.006 16.401 49.194 16.381 C 49.394 16.352 49.552 16.212 49.602 16.014 C 49.751 15.348 50.228 14.802 50.874 14.553 C 51.857 14.176 52.95 14.593 53.407 15.517 C 53.478 15.656 53.606 15.746 53.756 15.775 C 53.904 15.805 54.054 15.755 54.163 15.646 C 54.302 15.497 54.491 15.388 54.73 15.298 C 55.236 15.1 55.793 15.12 56.3 15.338 C 56.796 15.567 57.174 15.964 57.373 16.481 C 57.412 16.59 57.442 16.7 57.462 16.819 C 57.492 16.998 57.631 17.147 57.819 17.196 C 58.485 17.356 59.022 17.822 59.261 18.448 C 59.36 18.697 59.399 18.945 59.39 19.184 C 59.39 19.382 59.509 19.561 59.688 19.631 C 60.244 19.85 60.672 20.267 60.88 20.814 C 61.277 21.867 60.751 23.049 59.698 23.457 C 59.509 23.526 59.33 23.566 59.151 23.586 C 59.142 23.586 59.142 23.576 59.131 23.576 C 59.032 23.457 58.923 23.357 58.814 23.268 C 58.783 23.248 58.754 23.228 58.724 23.208 C 58.614 23.129 58.485 23.059 58.356 22.999 C 58.347 22.99 58.347 22.99 58.336 22.99 C 58.197 22.93 58.059 22.89 57.909 22.86 C 57.879 22.851 57.85 22.851 57.819 22.84 C 57.671 22.821 57.522 22.81 57.373 22.821 C 57.373 22.821 57.373 22.821 57.362 22.821 C 57.283 22.702 57.144 22.642 57.005 22.632 C 56.796 22.632 56.686 22.711 56.598 22.851 C 56.518 22.97 56.419 23.079 56.26 23.208 C 56.21 23.258 56.15 23.298 56.07 23.357 C 55.951 23.427 55.832 23.486 55.693 23.536 C 54.63 23.943 53.438 23.417 53.03 22.353 C 52.981 22.234 52.94 22.105 52.921 21.986 C 52.891 21.797 52.742 21.648 52.553 21.608 C 52.364 21.569 52.176 21.648 52.066 21.807 C 51.828 22.165 51.5 22.433 51.103 22.592 C 50.099 22.97 48.946 22.582 48.459 21.718 C 48.35 21.519 48.111 21.43 47.902 21.499 C 47.694 21.559 47.555 21.768 47.574 21.986 C 47.664 22.9 47.128 23.765 46.273 24.093 C 45.577 24.361 44.813 24.232 44.266 23.755 C 44.137 23.646 43.938 23.616 43.778 23.675 C 43.719 23.695 43.67 23.725 43.62 23.774 C 43.421 23.963 43.183 24.112 42.935 24.202 C 42.428 24.401 41.871 24.381 41.374 24.162 C 40.867 23.943 40.489 23.536 40.291 23.019 C 39.913 22.045 40.36 20.923 41.305 20.456 Z  M 61.407 31.118 L 60.274 35.739 C 59.698 38.084 57.611 39.733 55.196 39.743 C 54.987 39.753 54.809 39.664 54.68 39.495 C 54.551 39.326 54.501 39.107 54.551 38.898 L 55.067 36.762 C 55.156 36.444 55.435 36.235 55.743 36.235 C 55.793 36.235 55.853 36.246 55.902 36.255 L 56.786 36.474 C 56.905 36.504 57.035 36.484 57.134 36.415 C 57.243 36.355 57.323 36.246 57.353 36.127 L 58.406 31.784 C 58.495 31.595 58.564 31.406 58.635 31.217 C 58.654 31.148 58.674 31.078 58.694 31.009 C 58.733 30.879 58.773 30.76 58.804 30.631 C 58.823 30.562 58.833 30.482 58.854 30.403 C 58.873 30.283 58.902 30.174 58.923 30.045 C 58.933 29.975 58.933 29.896 58.942 29.816 C 58.952 29.707 58.973 29.598 58.982 29.488 L 58.992 29.429 C 59.032 29.29 58.992 29.15 58.913 29.041 C 58.902 29.031 58.902 29.022 58.893 29.011 C 58.873 28.981 58.843 28.952 58.814 28.932 C 58.794 28.922 58.773 28.902 58.754 28.892 C 58.754 28.882 58.744 28.882 58.744 28.882 C 58.704 28.862 58.674 28.853 58.635 28.842 L 58.614 28.833 C 58.605 28.833 58.605 28.833 58.605 28.833 L 57.769 28.634 C 57.602 28.594 57.452 28.485 57.353 28.326 C 57.264 28.167 57.233 27.988 57.273 27.809 L 57.8 25.663 C 57.85 25.444 57.988 25.275 58.188 25.185 C 58.376 25.106 58.585 25.106 58.794 25.226 C 58.833 25.245 58.863 25.265 58.942 25.315 C 60.939 26.478 61.953 28.862 61.407 31.118 Z  M 55.932 33.602 C 55.365 34.089 54.739 34.457 54.094 34.705 C 53.517 34.924 52.891 35.063 52.314 35.113 C 49.582 35.292 47.078 33.692 46.094 31.138 L 43.799 25.156 C 43.759 25.057 43.69 24.977 43.6 24.927 C 43.73 24.858 43.849 24.788 43.968 24.699 C 44.743 25.206 45.717 25.315 46.601 24.967 C 47.485 24.629 48.141 23.904 48.399 23.039 C 49.234 23.675 50.397 23.864 51.44 23.466 C 51.748 23.347 52.026 23.178 52.274 22.97 C 52.861 24.123 54.123 24.758 55.375 24.58 C 55.306 24.957 55.335 25.365 55.484 25.752 C 55.554 25.931 55.733 26.05 55.922 26.05 C 55.981 26.05 56.031 26.04 56.091 26.021 C 56.329 25.931 56.458 25.653 56.359 25.414 C 56.19 24.957 56.289 24.46 56.627 24.112 C 56.637 24.103 56.647 24.103 56.657 24.093 C 56.736 24.033 56.806 23.983 56.856 23.934 C 56.915 23.904 56.985 23.864 57.064 23.835 C 57.134 23.804 57.193 23.794 57.264 23.785 C 57.264 23.785 57.264 23.785 57.264 23.774 C 57.264 23.774 57.264 23.774 57.273 23.774 C 57.69 23.685 58.128 23.864 58.416 24.192 C 58.207 24.202 57.998 24.242 57.81 24.331 C 57.343 24.54 57.005 24.937 56.886 25.434 L 56.359 27.59 C 56.26 28.008 56.329 28.445 56.558 28.823 C 56.776 29.19 57.134 29.449 57.552 29.548 L 57.979 29.637 L 57.531 31.446 C 57.154 32.281 56.607 33.006 55.932 33.602 Z  M 40.986 25.027 C 41.374 25.196 41.791 25.285 42.199 25.285 C 42.438 25.285 42.676 25.245 42.914 25.185 C 42.885 25.275 42.885 25.384 42.924 25.484 L 45.22 31.476 C 46.283 34.268 48.926 36.066 51.897 36.066 C 52.057 36.066 52.226 36.057 52.384 36.047 C 53.06 35.997 53.766 35.838 54.432 35.58 C 55.177 35.292 55.882 34.874 56.548 34.318 C 56.677 34.199 56.796 34.079 56.915 33.95 L 56.548 35.44 L 56.131 35.341 C 55.246 35.132 54.382 35.649 54.163 36.534 L 53.637 38.67 C 53.517 39.167 53.626 39.684 53.944 40.081 C 54.252 40.469 54.699 40.688 55.177 40.688 C 55.186 40.688 55.196 40.688 55.196 40.688 C 58.048 40.678 60.503 38.73 61.189 35.957 L 62.321 31.336 C 62.44 30.86 62.49 30.373 62.49 29.896 C 62.49 27.789 61.417 25.772 59.618 24.639 C 59.608 24.589 59.599 24.52 59.578 24.46 C 59.728 24.431 59.887 24.391 60.035 24.331 C 61.576 23.745 62.341 22.016 61.755 20.476 C 61.486 19.78 60.989 19.233 60.324 18.886 C 60.304 18.627 60.234 18.369 60.135 18.111 C 59.827 17.296 59.161 16.65 58.326 16.362 C 58.297 16.292 58.276 16.212 58.247 16.143 C 57.959 15.398 57.402 14.811 56.677 14.483 C 55.951 14.156 55.137 14.136 54.392 14.424 C 54.232 14.483 54.094 14.543 53.954 14.623 C 53.179 13.599 51.798 13.192 50.536 13.669 C 49.89 13.917 49.363 14.374 49.016 14.951 C 48.211 14.145 46.979 13.848 45.856 14.285 C 45.13 14.563 44.554 15.09 44.226 15.755 C 43.53 15.477 42.766 15.467 42.04 15.746 C 40.51 16.332 39.734 18.071 40.32 19.601 C 40.36 19.7 40.4 19.8 40.45 19.879 C 39.387 20.665 38.93 22.105 39.416 23.357 C 39.694 24.112 40.261 24.699 40.986 25.027 Z " fill="rgb(41,41,41)"></path></g></svg>